<?xml version="1.0" encoding="UTF-8"?><svg width="24px" height="24px" viewBox="0 0 24 24" stroke-width="1.5" fill="none" xmlns="http://www.w3.org/2000/svg" color="#000000"><path d="M3 20.4V3.6C3 3.26863 3.26863 3 3.6 3H20.4C20.7314 3 21 3.26863 21 3.6V20.4C21 20.7314 20.7314 21 20.4 21H3.6C3.26863 21 3 20.7314 3 20.4Z" stroke="#000000" stroke-width="1.5"></path><path d="M12 15.5C12 16.3284 11.3284 17 10.5 17C9.67157 17 9 16.3284 9 15.5C9 14.6716 9.67157 14 10.5 14C11.3284 14 12 14.6716 12 15.5ZM12 15.5V7.6C12 7.26863 12.2686 7 12.6 7H15" stroke="#000000" stroke-width="1.5" stroke-linecap="round"></path>
<g transform="translate(13, 12) scale(0.5)">
<path d="M16 12H17.4C17.7314 12 18 12.2686 18 12.6V19.4C18 19.7314 17.7314 20 17.4 20H6.6C6.26863 20 6 19.7314 6 19.4V12.6C6 12.2686 6.26863 12 6.6 12H8M16 12V8C16 6.66667 15.2 4 12 4C8.8 4 8 6.66667 8 8V12M16 12H8" stroke="#FF0000" stroke-width="2.5" stroke-linecap="round" stroke-linejoin="round">
</path>
</g>
</svg>